<svg width="46" height="46" viewBox="0 0 46 46" fill="none" xmlns="http://www.w3.org/2000/svg">
<path d="M41.2778 37.2677V33.143C41.2778 32.7213 40.9328 32.3763 40.5111 32.3763H32.2618C31.8325 32.3763 31.4951 32.7213 31.4951 33.143V37.2677C31.4951 39.9663 33.6878 42.1667 36.3864 42.1667C39.0851 42.1667 41.2778 39.9663 41.2778 37.2677Z" fill="white"/>
<path d="M18.8752 17.3957C19.8565 17.3957 20.6615 16.5983 20.6615 15.6093C20.6615 14.628 19.8642 13.823 18.8752 13.823C17.8939 13.823 17.0889 14.6203 17.0889 15.6093C17.0889 16.5983 17.8862 17.3957 18.8752 17.3957Z" fill="white"/>
<path d="M13.6851 17.0047C13.7771 17.3497 13.7618 17.6947 13.7541 17.9937C13.7465 18.1853 13.7388 18.469 13.7848 18.5533C13.8308 18.6377 14.0838 18.768 14.2601 18.86C14.5285 18.998 14.8275 19.159 15.0805 19.412C15.3335 19.665 15.4868 19.964 15.6324 20.2323C15.7244 20.4087 15.8548 20.6617 15.9391 20.7077C16.0235 20.7537 16.3071 20.746 16.4988 20.7383C16.6061 20.7307 16.7135 20.7307 16.8285 20.7307C17.0431 20.7307 17.2654 20.746 17.4878 20.8073C17.8251 20.8993 18.1088 21.0757 18.3618 21.2367C18.5381 21.3517 18.7758 21.4973 18.8831 21.4973C18.9904 21.4973 19.2281 21.344 19.4044 21.2367C19.6574 21.0757 19.9411 20.8993 20.2785 20.8073C20.6311 20.7153 20.9685 20.7307 21.2675 20.7383C21.4591 20.746 21.7428 20.7613 21.8271 20.7153C21.9114 20.6617 22.0418 20.4163 22.1338 20.24C22.2718 19.9717 22.4328 19.6727 22.6858 19.4197C22.9388 19.1667 23.2378 19.0133 23.5061 18.8753C23.6901 18.7833 23.9355 18.653 23.9815 18.5687C24.0275 18.4843 24.0121 18.2007 24.0121 18.009C23.9968 17.7023 23.9891 17.365 24.0811 17.0123C24.1731 16.675 24.3495 16.3913 24.5105 16.1383C24.6255 15.962 24.7711 15.7243 24.7711 15.617C24.7711 15.5097 24.6178 15.272 24.5105 15.0957C24.3495 14.8427 24.1731 14.559 24.0811 14.2217C23.9891 13.8767 24.0045 13.5317 24.0121 13.225C24.0198 13.0333 24.0275 12.7497 23.9815 12.6653C23.9355 12.581 23.6825 12.4507 23.5061 12.3587C23.2378 12.2207 22.9388 12.0597 22.6858 11.8143C22.4328 11.5613 22.2794 11.2623 22.1414 10.994C22.0494 10.81 21.9191 10.5647 21.8348 10.5187C21.7581 10.4727 21.4668 10.488 21.2751 10.488C20.9761 10.5033 20.6311 10.511 20.2785 10.419C19.9411 10.327 19.6574 10.1507 19.4044 9.98967C19.2281 9.88234 18.9904 9.729 18.8831 9.729C18.7758 9.729 18.5381 9.88234 18.3618 9.98967C18.1088 10.1507 17.8251 10.327 17.4878 10.419C17.1428 10.511 16.7978 10.4957 16.4988 10.488C16.3071 10.4803 16.0235 10.4727 15.9391 10.5187C15.8548 10.5647 15.7244 10.8177 15.6324 10.994C15.4944 11.2623 15.3335 11.5613 15.0805 11.8143C14.8275 12.0673 14.5285 12.2207 14.2601 12.3663C14.0761 12.4583 13.8308 12.5887 13.7848 12.673C13.7388 12.7497 13.7541 13.041 13.7541 13.2327C13.7695 13.5317 13.7771 13.8767 13.6851 14.2217C13.5931 14.559 13.4168 14.8427 13.2558 15.0957C13.1408 15.272 12.9951 15.5097 12.9951 15.617C12.9951 15.7243 13.1485 15.962 13.2558 16.1383C13.4168 16.376 13.5931 16.6673 13.6851 17.0047ZM18.8755 12.2897C20.7078 12.2897 22.1951 13.777 22.1951 15.6093C22.1951 17.4417 20.7078 18.929 18.8755 18.929C17.0431 18.929 15.5558 17.4417 15.5558 15.6093C15.5558 13.777 17.0431 12.2897 18.8755 12.2897Z" fill="white"/>
<path d="M32.2613 30.843H33.028V4.60004C33.028 4.17071 32.683 3.83337 32.2613 3.83337H5.48932C5.06766 3.83337 4.72266 4.17071 4.72266 4.60004V36.5854C4.72266 39.6597 7.22199 42.1667 10.2963 42.1667H32.2307C30.843 40.986 29.9613 39.2304 29.9613 37.2677V33.143C29.9613 31.878 30.9963 30.843 32.2613 30.843ZM11.96 14.2677C12.0673 14.1067 12.1747 13.9304 12.2053 13.823C12.236 13.7004 12.2283 13.4934 12.2207 13.2864C12.2053 12.8724 12.1823 12.3664 12.4507 11.8987C12.7267 11.431 13.179 11.1934 13.547 11.0017C13.7233 10.9097 13.9073 10.81 13.9917 10.7257C14.076 10.6414 14.168 10.4574 14.2677 10.281C14.4593 9.91304 14.697 9.46071 15.1647 9.18471C15.6323 8.91637 16.146 8.93937 16.5523 8.95471C16.7517 8.96237 16.9663 8.97004 17.089 8.93937C17.1963 8.90871 17.365 8.80137 17.5337 8.69404C17.8863 8.47171 18.3233 8.18804 18.8753 8.18804C19.4273 8.18804 19.8643 8.46404 20.217 8.69404C20.378 8.80137 20.5543 8.90871 20.6617 8.93937C20.7843 8.97004 20.9913 8.96237 21.1983 8.95471C21.6047 8.93937 22.1183 8.91637 22.586 9.18471C23.0537 9.46071 23.2913 9.91304 23.483 10.281C23.575 10.4574 23.667 10.6414 23.759 10.7257C23.8433 10.81 24.0273 10.902 24.2037 11.0017C24.5717 11.1934 25.024 11.431 25.3 11.8987C25.5683 12.3664 25.5453 12.8724 25.53 13.2864C25.5223 13.4934 25.5147 13.7004 25.5453 13.823C25.576 13.9304 25.6833 14.099 25.7907 14.2677C26.013 14.6204 26.289 15.0574 26.289 15.6094C26.289 16.1614 26.013 16.5984 25.7907 16.951C25.6833 17.112 25.576 17.2884 25.5453 17.3957C25.5147 17.5184 25.5223 17.7254 25.53 17.9324C25.5453 18.3464 25.5683 18.8524 25.3 19.32C25.024 19.7877 24.5717 20.0254 24.2037 20.217C24.0273 20.309 23.8433 20.401 23.759 20.493C23.6747 20.5774 23.575 20.7614 23.483 20.9377C23.2913 21.3057 23.0537 21.758 22.586 22.034C22.1183 22.3024 21.6123 22.2794 21.1983 22.264C20.999 22.2564 20.7843 22.2487 20.6617 22.2794C20.5543 22.31 20.3857 22.4174 20.217 22.5247C19.8643 22.747 19.4273 23.023 18.8753 23.023C18.3233 23.023 17.8863 22.747 17.5337 22.517C17.3727 22.4097 17.1963 22.3024 17.089 22.2717C16.9663 22.241 16.7593 22.2487 16.5523 22.2564C16.146 22.2717 15.6323 22.2947 15.1647 22.0264C14.697 21.758 14.4593 21.298 14.2677 20.93C14.1757 20.7537 14.076 20.5697 13.9917 20.4854C13.9073 20.401 13.7233 20.3014 13.547 20.2094C13.179 20.0177 12.7267 19.78 12.4507 19.3124C12.1823 18.8447 12.2053 18.3387 12.2207 17.9247C12.2283 17.7177 12.236 17.5107 12.2053 17.388C12.1747 17.2807 12.0673 17.112 11.96 16.9434C11.7377 16.5907 11.454 16.1537 11.454 15.6017C11.4617 15.0574 11.7377 14.6204 11.96 14.2677ZM23.828 37.7967H13.915C13.4933 37.7967 13.1483 37.4517 13.1483 37.03C13.1483 36.6084 13.4933 36.2634 13.915 36.2634H23.828C24.2497 36.2634 24.5947 36.6084 24.5947 37.03C24.5947 37.4517 24.2573 37.7967 23.828 37.7967ZM28.7883 32.8747H8.96232C8.54066 32.8747 8.19566 32.5297 8.19566 32.108C8.19566 31.6864 8.54066 31.3414 8.96232 31.3414H28.7883C29.21 31.3414 29.555 31.6864 29.555 32.108C29.555 32.5297 29.21 32.8747 28.7883 32.8747ZM28.7883 27.945H8.96232C8.54066 27.945 8.19566 27.6 8.19566 27.1784C8.19566 26.7567 8.54066 26.4117 8.96232 26.4117H28.7883C29.21 26.4117 29.555 26.7567 29.555 27.1784C29.555 27.6077 29.21 27.945 28.7883 27.945Z" fill="white"/>
</svg>
