<svg width="54" height="54" viewBox="0 0 54 54" fill="none" xmlns="http://www.w3.org/2000/svg">
<path fill-rule="evenodd" clip-rule="evenodd" d="M51.2293 25.561H46.7123C46.3768 25.561 46.055 25.4277 45.8178 25.1905C45.5805 24.9533 45.4473 24.6315 45.4473 24.296C45.4473 23.9605 45.5805 23.6387 45.8178 23.4015C46.055 23.1643 46.3768 23.031 46.7123 23.031H51.2293C51.5648 23.031 51.8865 23.1643 52.1238 23.4015C52.361 23.6387 52.4943 23.9605 52.4943 24.296C52.4943 24.6315 52.361 24.9533 52.1238 25.1905C51.8865 25.4277 51.5648 25.561 51.2293 25.561Z" fill="#6756E7"/>
<path fill-rule="evenodd" clip-rule="evenodd" d="M35.4147 48.435H20.2947C19.5957 48.435 19.0297 47.869 19.0297 47.17C19.0297 39.462 17.0427 37.27 15.1217 35.15C13.2647 33.1 11.3447 30.979 11.3447 25.053C11.3447 22.104 12.1317 19.209 13.6227 16.681C13.7931 16.3919 14.0714 16.1823 14.3963 16.0984C14.5572 16.0569 14.7247 16.0474 14.8892 16.0706C15.0537 16.0937 15.2121 16.1491 15.3552 16.2335C15.4984 16.3178 15.6235 16.4296 15.7234 16.5623C15.8234 16.695 15.8962 16.8462 15.9378 17.007C15.9793 17.1679 15.9888 17.3354 15.9656 17.4999C15.9425 17.6645 15.8871 17.8228 15.8027 17.966C14.539 20.1139 13.8733 22.5609 13.8747 25.053C13.8747 30.003 15.2527 31.524 16.9967 33.45C19.0287 35.692 21.3167 38.218 21.5417 45.905H34.1667C34.3387 39.795 35.7847 36.845 37.8887 34.378C37.9966 34.2516 38.1283 34.1477 38.2764 34.0722C38.4244 33.9967 38.5859 33.9511 38.7515 33.938C38.9172 33.9249 39.0838 33.9446 39.2419 33.9959C39.3999 34.0472 39.5463 34.1291 39.6727 34.237C39.7991 34.3448 39.903 34.4766 39.9785 34.6246C40.054 34.7727 40.0996 34.9341 40.1127 35.0998C40.1258 35.2654 40.1061 35.432 40.0548 35.5901C40.0035 35.7482 39.9216 35.8946 39.8137 36.021C38.2977 37.798 36.6797 40.271 36.6797 47.171C36.6797 47.868 36.1137 48.435 35.4147 48.435ZM41.8297 32.67C41.6117 32.6699 41.3975 32.6135 41.2077 32.5062C41.0179 32.3989 40.8591 32.2444 40.7466 32.0577C40.6341 31.871 40.5718 31.6583 40.5657 31.4404C40.5596 31.2225 40.6099 31.0067 40.7117 30.814C41.4777 29.361 41.8337 27.531 41.8337 25.054C41.8337 17.345 35.5637 11.074 27.8547 11.074C24.5663 11.0763 21.3836 12.236 18.8647 14.35C18.7375 14.457 18.5905 14.5379 18.4321 14.5881C18.2736 14.6383 18.1068 14.6568 17.9412 14.6426C17.7756 14.6283 17.6144 14.5816 17.4668 14.5051C17.3193 14.4285 17.1883 14.3237 17.0812 14.1965C16.9742 14.0693 16.8933 13.9223 16.8431 13.7638C16.7929 13.6053 16.7743 13.4385 16.7886 13.2729C16.8029 13.1073 16.8496 12.9461 16.9261 12.7986C17.0027 12.651 17.1075 12.52 17.2347 12.413C20.2096 9.91437 23.9698 8.54411 27.8547 8.54297C36.9587 8.54297 44.3647 15.949 44.3647 25.053C44.3647 27.958 43.9157 30.163 42.9507 31.993C42.7237 32.424 42.2847 32.67 41.8297 32.67Z" fill="#24223E"/>
<path fill-rule="evenodd" clip-rule="evenodd" d="M30.5518 48.4349C29.8518 48.4349 29.2857 47.8689 29.2857 47.1699V40.8149C29.2857 40.5929 29.3447 40.3749 29.4557 40.1819L31.2078 37.1469V29.9869C31.2078 29.6513 31.3411 29.3294 31.5784 29.0921C31.8157 28.8548 32.1376 28.7214 32.4732 28.7214C32.8089 28.7214 33.1308 28.8548 33.3681 29.0921C33.6054 29.3294 33.7387 29.6513 33.7387 29.9869V37.4849C33.7387 37.7079 33.6808 37.9249 33.5688 38.1179L31.8167 41.1529V47.1689C31.8167 47.8689 31.2498 48.4349 30.5518 48.4349ZM25.1578 48.4349C24.4578 48.4349 23.8918 47.8689 23.8918 47.1699V41.1539L22.1388 38.1189C22.0277 37.9264 21.9691 37.7082 21.9688 37.4859V29.9879C21.9687 29.6523 22.1021 29.3304 22.3394 29.0931C22.5767 28.8558 22.8986 28.7224 23.2343 28.7224C23.5699 28.7224 23.8918 28.8558 24.1291 29.0931C24.3664 29.3304 24.4998 29.6523 24.4998 29.9879V37.1469L26.2528 40.1819C26.3638 40.3739 26.4228 40.5919 26.4228 40.8139V47.1689C26.4228 47.8689 25.8558 48.4349 25.1578 48.4349Z" fill="#24223E"/>
<path fill-rule="evenodd" clip-rule="evenodd" d="M35.4338 31.2529H20.2738C19.9383 31.2529 19.6165 31.1196 19.3793 30.8824C19.1421 30.6452 19.0088 30.3234 19.0088 29.9879C19.0088 29.6524 19.1421 29.3306 19.3793 29.0934C19.6165 28.8562 19.9383 28.7229 20.2738 28.7229H35.4338C35.7693 28.7229 36.091 28.8562 36.3283 29.0934C36.5655 29.3306 36.6988 29.6524 36.6988 29.9879C36.6988 30.3234 36.5655 30.6452 36.3283 30.8824C36.091 31.1196 35.7693 31.2529 35.4338 31.2529Z" fill="#24223E"/>
<path fill-rule="evenodd" clip-rule="evenodd" d="M27.8544 7.06388C27.6882 7.06388 27.5236 7.03113 27.3701 6.96749C27.2165 6.90386 27.077 6.81059 26.9595 6.69302C26.8421 6.57545 26.7489 6.43588 26.6854 6.28228C26.6219 6.12869 26.5893 5.96409 26.5894 5.79788V1.26988C26.5894 0.934384 26.7227 0.612626 26.9599 0.375393C27.1971 0.138159 27.5189 0.00488281 27.8544 0.00488281C28.1899 0.00488281 28.5116 0.138159 28.7489 0.375393C28.9861 0.612626 29.1194 0.934384 29.1194 1.26988V5.79788C29.1194 6.49788 28.5534 7.06388 27.8544 7.06388ZM38.1844 9.90688C37.9624 9.90654 37.7444 9.84784 37.5523 9.73668C37.3602 9.62552 37.2007 9.4658 37.0898 9.27353C36.9788 9.08127 36.9204 8.86322 36.9203 8.64126C36.9203 8.41929 36.9786 8.20121 37.0894 8.00888L39.3524 4.08888C39.4354 3.94495 39.546 3.81879 39.6779 3.71761C39.8097 3.61642 39.9601 3.54219 40.1206 3.49915C40.2811 3.45611 40.4486 3.4451 40.6133 3.46676C40.7781 3.48842 40.937 3.54232 41.0809 3.62538C41.2248 3.70844 41.351 3.81904 41.4522 3.95086C41.5533 4.08268 41.6276 4.23313 41.6706 4.39364C41.7137 4.55414 41.7247 4.72156 41.703 4.88632C41.6813 5.05107 41.6274 5.20995 41.5444 5.35388L39.2814 9.27388C39.0464 9.67988 38.6214 9.90688 38.1844 9.90688ZM45.7104 17.5349C45.4315 17.5356 45.1603 17.4442 44.9388 17.2749C44.7172 17.1055 44.5579 16.8677 44.4855 16.5984C44.413 16.3292 44.4316 16.0435 44.5383 15.7859C44.645 15.5283 44.8338 15.3131 45.0754 15.1739L48.9964 12.9099C49.2865 12.7511 49.6272 12.7122 49.9457 12.8014C50.2641 12.8906 50.535 13.1009 50.7004 13.3873C50.8658 13.6737 50.9126 14.0134 50.8307 14.3338C50.7489 14.6543 50.5449 14.9299 50.2624 15.1019L46.3414 17.3649C46.1414 17.4799 45.9254 17.5349 45.7104 17.5349ZM17.5264 9.90688C17.0884 9.90688 16.6634 9.67988 16.4284 9.27388L14.1654 5.35388C14.0066 5.06377 13.9677 4.72305 14.0569 4.4046C14.1461 4.08615 14.3564 3.81525 14.6428 3.64985C14.9292 3.48445 15.2689 3.43768 15.5893 3.51954C15.9098 3.6014 16.1854 3.80539 16.3574 4.08788L18.6204 8.00988C18.7311 8.20214 18.7894 8.42013 18.7894 8.64201C18.7894 8.86389 18.7311 9.08187 18.6203 9.2741C18.5095 9.46633 18.3501 9.62607 18.1581 9.73731C17.9661 9.84854 17.7483 9.90736 17.5264 9.90788M10.0004 17.5349C9.78538 17.5349 9.56838 17.4799 9.36838 17.3649L5.44838 15.1019C5.30445 15.0188 5.17829 14.9082 5.07711 14.7764C4.97592 14.6446 4.90169 14.4941 4.85865 14.3336C4.81561 14.1731 4.8046 14.0057 4.82626 13.841C4.84792 13.6762 4.90182 13.5173 4.98488 13.3734C5.06794 13.2295 5.17854 13.1033 5.31036 13.0021C5.44218 12.9009 5.59263 12.8267 5.75314 12.7836C5.91365 12.7406 6.08106 12.7296 6.24582 12.7513C6.41057 12.7729 6.56945 12.8268 6.71338 12.9099L10.6334 15.1739C10.8743 15.3133 11.0626 15.5282 11.1689 15.7854C11.2753 16.0426 11.2939 16.3278 11.2218 16.5966C11.1497 16.8654 10.9909 17.103 10.7701 17.2724C10.5493 17.4419 10.2787 17.5348 10.0004 17.5349ZM7.29938 27.9019H2.77038C2.43475 27.9019 2.11287 27.7686 1.87554 27.5312C1.63821 27.2939 1.50488 26.972 1.50488 26.6364C1.50488 26.3008 1.63821 25.9789 1.87554 25.7415C2.11287 25.5042 2.43475 25.3709 2.77038 25.3709H7.30038C7.63588 25.3709 7.95764 25.5042 8.19487 25.7414C8.43211 25.9786 8.56538 26.3004 8.56538 26.6359C8.56538 26.9714 8.43211 27.2931 8.19487 27.5304C7.95764 27.7676 7.63588 27.9009 7.30038 27.9009" fill="#6756E7"/>
<path fill-rule="evenodd" clip-rule="evenodd" d="M33.486 53.9951H22.223C21.524 53.9951 20.958 53.4291 20.958 52.7301V47.1701C20.958 46.4701 21.524 45.9041 22.223 45.9041H33.486C34.185 45.9041 34.751 46.4701 34.751 47.1701V52.7301C34.751 53.4291 34.185 53.9951 33.486 53.9951ZM23.489 51.4651H32.221V48.4351H23.489V51.4651Z" fill="#24223E"/>
</svg>
