<svg width="40" height="40" viewBox="0 0 40 40" fill="none" xmlns="http://www.w3.org/2000/svg">
<g clip-path="url(#clip0_1_1855)">
<path d="M22.75 22.75H17.25C16.5207 22.75 15.8212 23.0397 15.3055 23.5555C14.7897 24.0712 14.5 24.7707 14.5 25.5V36.5C14.5 37.2293 14.7897 37.9288 15.3055 38.4445C15.8212 38.9603 16.5207 39.25 17.25 39.25H22.75C23.4793 39.25 24.1788 38.9603 24.6945 38.4445C25.2103 37.9288 25.5 37.2293 25.5 36.5V25.5C25.5 24.7707 25.2103 24.0712 24.6945 23.5555C24.1788 23.0397 23.4793 22.75 22.75 22.75ZM17.25 36.5V25.5H22.75V36.5H17.25ZM9 26.875H3.5C2.77065 26.875 2.07118 27.1647 1.55546 27.6805C1.03973 28.1962 0.75 28.8957 0.75 29.625V36.5C0.75 37.2293 1.03973 37.9288 1.55546 38.4445C2.07118 38.9603 2.77065 39.25 3.5 39.25H9C9.72935 39.25 10.4288 38.9603 10.9445 38.4445C11.4603 37.9288 11.75 37.2293 11.75 36.5V29.625C11.75 28.8957 11.4603 28.1962 10.9445 27.6805C10.4288 27.1647 9.72935 26.875 9 26.875ZM3.5 36.5V29.625H9V36.5H3.5ZM36.5 15.875H31C30.2707 15.875 29.5712 16.1647 29.0555 16.6805C28.5397 17.1962 28.25 17.8957 28.25 18.625V36.5C28.25 37.2293 28.5397 37.9288 29.0555 38.4445C29.5712 38.9603 30.2707 39.25 31 39.25H36.5C37.2293 39.25 37.9288 38.9603 38.4445 38.4445C38.9603 37.9288 39.25 37.2293 39.25 36.5V18.625C39.25 17.8957 38.9603 17.1962 38.4445 16.6805C37.9288 16.1647 37.2293 15.875 36.5 15.875ZM31 36.5V18.625H36.5V36.5H31Z" fill="#24223E"/>
<path d="M35.1262 0.75H28.2502C27.8855 0.75 27.5358 0.894866 27.2779 1.15273C27.0201 1.41059 26.8752 1.76033 26.8752 2.125C26.8752 2.48967 27.0201 2.83941 27.2779 3.09727C27.5358 3.35513 27.8855 3.5 28.2502 3.5H31.9292C28.2273 7.36259 23.9815 10.6644 19.3262 13.301C15.1084 15.6684 10.5978 17.4712 5.91019 18.663C5.73521 18.7076 5.57073 18.7863 5.42615 18.8945C5.28157 19.0028 5.15972 19.1384 5.06756 19.2937C4.97539 19.449 4.91473 19.6209 4.88901 19.7997C4.8633 19.9784 4.87304 20.1605 4.91769 20.3355C4.96234 20.5105 5.04102 20.675 5.14924 20.8195C5.25745 20.9641 5.39308 21.086 5.54839 21.1781C5.7037 21.2703 5.87563 21.331 6.05439 21.3567C6.23314 21.3824 6.41521 21.3726 6.59019 21.328C11.5111 20.0736 16.2459 18.1784 20.6732 15.691C25.4936 12.969 29.8979 9.56858 33.7512 5.594V9C33.7512 9.36467 33.8961 9.71441 34.1539 9.97227C34.4118 10.2301 34.7615 10.375 35.1262 10.375C35.4909 10.375 35.8406 10.2301 36.0985 9.97227C36.3563 9.71441 36.5012 9.36467 36.5012 9V2.125C36.5012 1.76033 36.3563 1.41059 36.0985 1.15273C35.8406 0.894866 35.4909 0.75 35.1262 0.75Z" fill="#6756E7"/>
</g>
<defs>
<clipPath id="clip0_1_1855">
<rect width="40" height="40" fill="white"/>
</clipPath>
</defs>
</svg>
