<svg width="38" height="38" viewBox="0 0 38 38" fill="none" xmlns="http://www.w3.org/2000/svg">
<path d="M16.1869 30.6152V36.9602H1.03955V30.6152C1.03955 28.6789 2.61447 27.1039 4.55084 27.1039H6.86572H7.91666L7.46541 30.115L8.61283 32.0417L9.75951 30.115L9.30975 27.1039H10.3607H12.6756C14.6119 27.1039 16.1869 28.6789 16.1869 30.6152ZM8.61283 26.0649C11.0658 26.0649 13.0608 24.0691 13.0608 21.6169C13.0608 19.1633 11.0658 17.1675 8.61283 17.1675C6.1599 17.1675 4.16342 19.1633 4.16342 21.6169C4.16342 24.0691 6.1599 26.0649 8.61283 26.0649ZM32.9106 25.6478H30.206H29.1551L29.6783 29.1457L28.3068 31.4502L26.9337 29.1457L27.457 25.6478H26.406H23.7022C21.469 25.6478 19.6521 27.4646 19.6521 29.6979V36.9602H36.9607V29.6979C36.9607 27.4646 35.1438 25.6478 32.9106 25.6478ZM28.3075 24.6087C31.1263 24.6087 33.4197 22.3153 33.4197 19.4965C33.4197 16.6777 31.1263 14.3843 28.3075 14.3843C25.4879 14.3843 23.1946 16.6777 23.1946 19.4965C23.1946 22.3153 25.4879 24.6087 28.3075 24.6087ZM16.7465 5.64507H1.52123C1.25553 5.64507 1.03955 5.86179 1.03955 6.12823V17.428L4.29479 14.2841C4.39201 14.1906 4.52115 14.1379 4.65623 14.1379H16.7465C17.0122 14.1379 17.2281 13.9219 17.2281 13.6562V6.12823C17.2281 5.86179 17.0122 5.64507 16.7465 5.64507ZM36.4783 1.03979H21.2553C20.9896 1.03979 20.7736 1.25577 20.7736 1.52147V9.04874C20.7736 9.31444 20.9896 9.53042 21.2553 9.53042H33.3462C33.4806 9.53042 33.6104 9.58311 33.7069 9.67663L36.9607 12.8205V1.52147C36.9607 1.25577 36.744 1.03979 36.4783 1.03979Z" fill="white"/>
</svg>
