<svg width="24" height="24" viewBox="0 0 24 24" fill="none" xmlns="http://www.w3.org/2000/svg">
<path d="M12 19.078C11.2234 19.078 10.5938 19.7076 10.5938 20.4842C10.5938 21.2609 11.2234 21.8905 12 21.8905C12.7766 21.8905 13.4063 21.2609 13.4063 20.4842C13.4063 19.7076 12.7766 19.078 12 19.078ZM12 19.078L12 15.703M18.5625 20.4842C17.7859 20.4842 17.1562 21.1139 17.1562 21.8905C17.1562 22.6671 17.7859 23.2967 18.5625 23.2967C19.3391 23.2967 19.9687 22.6671 19.9687 21.8905C19.9687 21.1139 19.3391 20.4842 18.5625 20.4842ZM18.5625 20.4842L18.5625 18.6093L17.1562 17.6718V15.703M5.4375 20.4842C6.21413 20.4842 6.84375 21.1139 6.84375 21.8905C6.84375 22.6671 6.21413 23.2967 5.4375 23.2967C4.66087 23.2967 4.03125 22.6671 4.03125 21.8905C4.03125 21.1139 4.66087 20.4842 5.4375 20.4842ZM5.4375 20.4842L5.4375 18.6093L6.84375 17.6718V15.703M4.13524 9.5053C2.12158 7.49164 2.12158 4.22689 4.13524 2.21324M11.498 3.95094C13.3285 2.12038 16.2965 2.12038 18.1271 3.95094M19.5 8.203C19.4679 8.203 19.437 8.20699 19.4051 8.20783C19.4673 7.90338 19.5 7.58828 19.5 7.2655C19.5 4.67664 17.4013 2.578 14.8125 2.578C13.8752 2.578 13.0042 2.85607 12.2717 3.32993C11.387 1.76289 9.70908 0.703003 7.78125 0.703003C4.93355 0.703003 2.625 3.01155 2.625 5.85925C2.625 6.53078 2.75733 7.17039 2.99086 7.75877C1.6582 8.4678 0.75 9.86936 0.75 11.4843C0.75 13.8142 2.63878 15.703 4.96875 15.703H19.5C21.5711 15.703 23.25 14.0241 23.25 11.953C23.25 9.88192 21.5711 8.203 19.5 8.203Z" stroke="#6756E7" stroke-width="1.5" stroke-miterlimit="10" stroke-linecap="round" stroke-linejoin="round"/>
</svg>
