<svg width="24" height="24" viewBox="0 0 24 24" fill="none" xmlns="http://www.w3.org/2000/svg">
<g clip-path="url(#clip0_1_1927)">
<path d="M18.3477 12.7893C12.3451 13.7764 11.278 15.0303 10.4776 22.3401C10.451 22.5802 10.1042 22.5802 10.0775 22.3401C9.27713 15.0303 8.21 13.8031 2.20742 12.7893C1.96732 12.7626 1.96732 12.4158 2.20742 12.3891C8.21 11.402 9.27713 10.1749 10.0775 2.86504C10.1042 2.62494 10.451 2.62494 10.4776 2.86504C11.278 10.1749 12.3451 11.3754 18.3477 12.3891C18.5611 12.4158 18.5611 12.736 18.3477 12.7893Z" fill="black"/>
<path d="M18.3477 12.7893C12.3451 13.7764 11.278 15.0303 10.4776 22.3401C10.451 22.5802 10.1042 22.5802 10.0775 22.3401C9.27713 15.0303 8.21 13.8031 2.20742 12.7893C1.96732 12.7626 1.96732 12.4158 2.20742 12.3891C8.21 11.402 9.27713 10.1749 10.0775 2.86504C10.1042 2.62494 10.451 2.62494 10.4776 2.86504C11.278 10.1749 12.3451 11.3754 18.3477 12.3891C18.5611 12.4158 18.5611 12.736 18.3477 12.7893Z" fill="url(#paint0_linear_1_1927)"/>
<path d="M20.9088 4.35902C19.0413 4.73251 18.5078 5.34611 18.1876 7.53372C18.161 7.77382 17.8141 7.77382 17.7875 7.53372C17.4673 5.34611 16.9338 4.73251 15.0663 4.33234C14.8529 4.27898 14.8529 3.98553 15.0663 3.93217C16.9071 3.55867 17.4673 2.94508 17.7875 0.75747C17.8141 0.517367 18.161 0.517367 18.1876 0.75747C18.5078 2.94508 19.0413 3.55867 20.9088 3.95885C21.1222 4.0122 21.1222 4.33234 20.9088 4.35902Z" fill="black"/>
<path d="M20.9088 4.35902C19.0413 4.73251 18.5078 5.34611 18.1876 7.53372C18.161 7.77382 17.8141 7.77382 17.7875 7.53372C17.4673 5.34611 16.9338 4.73251 15.0663 4.33234C14.8529 4.27898 14.8529 3.98553 15.0663 3.93217C16.9071 3.55867 17.4673 2.94508 17.7875 0.75747C17.8141 0.517367 18.161 0.517367 18.1876 0.75747C18.5078 2.94508 19.0413 3.55867 20.9088 3.95885C21.1222 4.0122 21.1222 4.33234 20.9088 4.35902Z" fill="url(#paint1_linear_1_1927)"/>
</g>
<defs>
<linearGradient id="paint0_linear_1_1927" x1="2.93408" y1="2.79092" x2="26.7093" y2="16.791" gradientUnits="userSpaceOnUse">
<stop stop-color="white"/>
<stop offset="1" stop-color="#666666"/>
</linearGradient>
<linearGradient id="paint1_linear_1_1927" x1="2.93408" y1="2.79092" x2="26.7093" y2="16.791" gradientUnits="userSpaceOnUse">
<stop stop-color="white"/>
<stop offset="1" stop-color="#666666"/>
</linearGradient>
<clipPath id="clip0_1_1927">
<rect width="23.0977" height="23.0977" fill="white"/>
</clipPath>
</defs>
</svg>
