<svg width="24" height="24" viewBox="0 0 24 24" fill="none" xmlns="http://www.w3.org/2000/svg">
<mask id="mask0_1_4807" style="mask-type:luminance" maskUnits="userSpaceOnUse" x="0" y="0" width="24" height="24">
<path d="M0 0H24V24H0V0Z" fill="white"/>
</mask>
<g mask="url(#mask0_1_4807)">
<path d="M13.9219 20.25H10.1719V18.375H13.9219V20.25Z" fill="url(#paint0_linear_1_4807)"/>
<path d="M19.9219 10.2656V21.1875C19.9219 22.223 19.0824 23.0625 18.0469 23.0625H6.04687C5.01136 23.0625 4.17187 22.223 4.17187 21.1875V10.3125M4.17187 4.54687V2.8125C4.17187 1.77698 5.01136 0.937498 6.04687 0.937498H18.0469C19.0824 0.937498 19.9219 1.77698 19.9219 2.8125V4.59375M9.75 8.20313V8.25C9.75 9.46172 8.75859 10.4531 7.54687 10.4531C6.33516 10.4531 5.34375 9.46172 5.34375 8.25C5.34375 9.46172 4.35234 10.4531 3.14062 10.4531C1.92891 10.4531 0.9375 9.5086 0.9375 8.29688L3.79687 4.6875H20.2031L23.0625 8.25C23.0625 9.46172 22.0711 10.4531 20.8594 10.4531C19.6477 10.4531 18.6562 9.46172 18.6562 8.25C18.6562 9.46172 17.6648 10.4531 16.4531 10.4531C15.2414 10.4531 14.25 9.46172 14.25 8.25V8.20313M9.75 8.20313C9.75 9.44063 10.7625 10.4531 12 10.4531C13.2375 10.4531 14.25 9.44063 14.25 8.20313M9.75 8.20313L9.75 7.73438M14.25 8.20313L14.25 7.73438M5.34375 8.29687V7.73437M18.6562 8.29687V7.73437" stroke="url(#paint1_linear_1_4807)" stroke-width="1.5" stroke-miterlimit="10"/>
</g>
<defs>
<linearGradient id="paint0_linear_1_4807" x1="10.334" y1="20.0284" x2="13.8311" y2="19.4116" gradientUnits="userSpaceOnUse">
<stop stop-color="#3E64AF"/>
<stop offset="1" stop-color="#443F8C"/>
</linearGradient>
<linearGradient id="paint1_linear_1_4807" x1="1.89426" y1="3.55227" x2="23.0044" y2="5.41395" gradientUnits="userSpaceOnUse">
<stop stop-color="#3E64AF"/>
<stop offset="1" stop-color="#443F8C"/>
</linearGradient>
</defs>
</svg>
