<svg width="42" height="42" viewBox="0 0 42 42" fill="none" xmlns="http://www.w3.org/2000/svg">
<g clip-path="url(#clip0_1_1860)">
<path d="M19.4385 31.938C17.5843 31.938 15.7717 31.3882 14.23 30.358C12.6883 29.3279 11.4867 27.8637 10.7771 26.1507C10.0675 24.4376 9.88188 22.5526 10.2436 20.734C10.6054 18.9154 11.4982 17.245 12.8094 15.9339C14.1205 14.6227 15.7909 13.7299 17.6095 13.3681C19.4281 13.0064 21.3131 13.1921 23.0261 13.9016C24.7392 14.6112 26.2034 15.8128 27.2335 17.3545C28.2636 18.8962 28.8135 20.7088 28.8135 22.563C28.8108 25.0486 27.8223 27.4316 26.0647 29.1892C24.3071 30.9468 21.9241 31.9353 19.4385 31.938ZM19.4385 16.313C17.7809 16.313 16.1912 16.9715 15.0191 18.1436C13.847 19.3157 13.1885 20.9054 13.1885 22.563C13.1885 24.2206 13.847 25.8103 15.0191 26.9824C16.1912 28.1545 17.7809 28.813 19.4385 28.813C21.0961 28.813 22.6858 28.1545 23.8579 26.9824C25.03 25.8103 25.6885 24.2206 25.6885 22.563C25.6885 20.9054 25.03 19.3157 23.8579 18.1436C22.6858 16.9715 21.0961 16.313 19.4385 16.313Z" fill="#24223E"/>
<path d="M19.4385 41.313C15.7301 41.313 12.105 40.2133 9.02154 38.1531C5.93812 36.0928 3.53489 33.1644 2.11574 29.7383C0.696601 26.3122 0.325288 22.5422 1.04876 18.9051C1.77223 15.2679 3.558 11.927 6.18023 9.30474C8.80247 6.68251 12.1434 4.89675 15.7805 4.17327C19.4177 3.4498 23.1877 3.82111 26.6138 5.24026C30.0399 6.6594 32.9683 9.06263 35.0285 12.1461C37.0888 15.2295 38.1885 18.8546 38.1885 22.563C38.1832 27.5342 36.2061 32.3002 32.6909 35.8154C29.1757 39.3306 24.4097 41.3077 19.4385 41.313ZM19.4385 6.938C16.3482 6.938 13.3272 7.85439 10.7577 9.57128C8.18818 11.2882 6.18549 13.7285 5.00287 16.5836C3.82025 19.4387 3.51082 22.5803 4.11372 25.6113C4.71661 28.6422 6.20475 31.4263 8.38994 33.6115C10.5751 35.7967 13.3592 37.2849 16.3902 37.8878C19.4212 38.4907 22.5628 38.1812 25.4179 36.9986C28.273 35.816 30.7133 33.8133 32.4302 31.2438C34.1471 28.6743 35.0635 25.6533 35.0635 22.563C35.0595 18.42 33.4119 14.4479 30.4823 11.5185C27.5527 8.58906 23.5814 6.9417 19.4385 6.938Z" fill="#24223E"/>
<path d="M40.4489 5.54009L37.7929 4.21009L36.4649 1.55409C36.3228 1.26812 36.0966 1.03253 35.8166 0.879013C35.5366 0.725496 35.2163 0.661418 34.8988 0.695401C34.5813 0.729384 34.2818 0.859798 34.0407 1.06909C33.7995 1.27839 33.6282 1.55653 33.5499 1.86609L32.0939 7.70009L18.3439 21.4581C18.1574 21.6388 18.0188 21.8631 17.9407 22.1107C17.8625 22.3584 17.8473 22.6216 17.8963 22.8766C17.9453 23.1316 18.057 23.3704 18.2214 23.5715C18.3858 23.7725 18.5977 23.9294 18.8379 24.0281C19.1271 24.1469 19.4453 24.1762 19.7513 24.112C20.0573 24.0478 20.3369 23.8931 20.5539 23.6681L34.3039 9.91809L40.1339 8.45909C40.4432 8.38054 40.721 8.20923 40.93 7.96817C41.139 7.72711 41.2693 7.42784 41.3033 7.11059C41.3372 6.79333 41.2733 6.47327 41.12 6.19342C40.9668 5.91357 40.7315 5.68733 40.4459 5.54509L40.4489 5.54009Z" fill="#6756E7"/>
</g>
<defs>
<clipPath id="clip0_1_1860">
<rect width="42" height="42" fill="white"/>
</clipPath>
</defs>
</svg>
